<mxfile host="app.diagrams.net" modified="2024-03-11T13:47:24.278Z" agent="Mozilla/5.0 (X11; Ubuntu; Linux x86_64; rv:122.0) Gecko/20100101 Firefox/122.0" etag="AZL3sNWd6jrMVy5OjdLq" version="23.1.7" type="device">
  <diagram name="Page-1" id="ftgBjuNOyO1_quuu3mew">
    <mxGraphModel dx="1434" dy="795" grid="1" gridSize="10" guides="1" tooltips="1" connect="1" arrows="1" fold="1" page="1" pageScale="1" pageWidth="850" pageHeight="1100" math="0" shadow="0">
      <root>
        <mxCell id="0" />
        <mxCell id="1" parent="0" />
        <mxCell id="FFMesDiLdKPJftJJYNsA-1" value="&lt;div style=&quot;font-size: 13px; line-height: 140%;&quot;&gt;&lt;font style=&quot;font-size: 13px;&quot;&gt;&lt;b&gt;Crypto Layer&lt;/b&gt;&lt;/font&gt;&lt;/div&gt;" style="rounded=1;whiteSpace=wrap;html=1;fillColor=none;strokeWidth=2;" parent="1" vertex="1">
          <mxGeometry x="505" y="600" width="190" height="50" as="geometry" />
        </mxCell>
        <mxCell id="FFMesDiLdKPJftJJYNsA-8" style="rounded=0;orthogonalLoop=1;jettySize=auto;html=1;entryX=0.5;entryY=0;entryDx=0;entryDy=0;strokeWidth=2;endArrow=classicThin;endFill=1;exitX=0.5;exitY=1;exitDx=0;exitDy=0;" parent="1" source="FFMesDiLdKPJftJJYNsA-2" target="FFMesDiLdKPJftJJYNsA-1" edge="1">
          <mxGeometry relative="1" as="geometry" />
        </mxCell>
        <mxCell id="FFMesDiLdKPJftJJYNsA-15" style="rounded=0;orthogonalLoop=1;jettySize=auto;html=1;entryX=0;entryY=0.5;entryDx=0;entryDy=0;startArrow=classicThin;startFill=1;strokeWidth=2;endArrow=classicThin;endFill=1;" parent="1" source="FFMesDiLdKPJftJJYNsA-2" target="FFMesDiLdKPJftJJYNsA-14" edge="1">
          <mxGeometry relative="1" as="geometry" />
        </mxCell>
        <mxCell id="FFMesDiLdKPJftJJYNsA-2" value="&lt;div style=&quot;font-size: 13px; line-height: 140%;&quot;&gt;&lt;font style=&quot;font-size: 13px;&quot;&gt;&lt;b&gt;Components library&lt;/b&gt;&lt;b&gt;&lt;br&gt;&lt;/b&gt;&lt;/font&gt;&lt;/div&gt;" style="rounded=1;whiteSpace=wrap;html=1;fillColor=none;strokeWidth=2;" parent="1" vertex="1">
          <mxGeometry x="250" y="436" width="140" height="61" as="geometry" />
        </mxCell>
        <mxCell id="FFMesDiLdKPJftJJYNsA-5" style="rounded=0;orthogonalLoop=1;jettySize=auto;html=1;entryX=0;entryY=0.5;entryDx=0;entryDy=0;strokeWidth=2;startArrow=none;startFill=0;endArrow=classicThin;endFill=1;dashed=1;" parent="1" source="FFMesDiLdKPJftJJYNsA-3" target="FFMesDiLdKPJftJJYNsA-2" edge="1">
          <mxGeometry relative="1" as="geometry" />
        </mxCell>
        <mxCell id="FFMesDiLdKPJftJJYNsA-3" value="&lt;b&gt;FHERMA&lt;/b&gt;" style="rounded=1;whiteSpace=wrap;html=1;fillColor=none;strokeWidth=2;" parent="1" vertex="1">
          <mxGeometry x="30" y="423.25" width="140" height="86.5" as="geometry" />
        </mxCell>
        <mxCell id="FFMesDiLdKPJftJJYNsA-23" style="rounded=0;orthogonalLoop=1;jettySize=auto;html=1;entryX=0.5;entryY=0;entryDx=0;entryDy=0;endArrow=classicThin;endFill=1;strokeWidth=2;exitX=0.5;exitY=1;exitDx=0;exitDy=0;" parent="1" source="FFMesDiLdKPJftJJYNsA-14" target="FFMesDiLdKPJftJJYNsA-1" edge="1">
          <mxGeometry relative="1" as="geometry" />
        </mxCell>
        <mxCell id="FFMesDiLdKPJftJJYNsA-14" value="&lt;b&gt;SIMD and encoding&lt;/b&gt;" style="rounded=1;whiteSpace=wrap;html=1;fillColor=none;strokeWidth=2;" parent="1" vertex="1">
          <mxGeometry x="530" y="430" width="140" height="73" as="geometry" />
        </mxCell>
        <mxCell id="FFMesDiLdKPJftJJYNsA-17" style="rounded=0;orthogonalLoop=1;jettySize=auto;html=1;entryX=0.5;entryY=0;entryDx=0;entryDy=0;strokeWidth=2;endArrow=classicThin;endFill=1;" parent="1" source="FFMesDiLdKPJftJJYNsA-16" target="FFMesDiLdKPJftJJYNsA-2" edge="1">
          <mxGeometry relative="1" as="geometry" />
        </mxCell>
        <mxCell id="FFMesDiLdKPJftJJYNsA-20" style="rounded=0;orthogonalLoop=1;jettySize=auto;html=1;strokeWidth=2;startArrow=none;startFill=0;endArrow=classicThin;endFill=1;entryX=0.5;entryY=0;entryDx=0;entryDy=0;" parent="1" source="FFMesDiLdKPJftJJYNsA-16" target="FFMesDiLdKPJftJJYNsA-18" edge="1">
          <mxGeometry relative="1" as="geometry">
            <mxPoint x="410" y="217" as="targetPoint" />
          </mxGeometry>
        </mxCell>
        <mxCell id="FFMesDiLdKPJftJJYNsA-16" value="User-defined application logic" style="rounded=1;whiteSpace=wrap;html=1;fillColor=none;strokeWidth=2;fontStyle=1" parent="1" vertex="1">
          <mxGeometry x="250" y="80" width="140" height="73" as="geometry" />
        </mxCell>
        <mxCell id="FFMesDiLdKPJftJJYNsA-21" style="rounded=0;orthogonalLoop=1;jettySize=auto;html=1;entryX=0.5;entryY=0;entryDx=0;entryDy=0;strokeWidth=2;endArrow=classicThin;endFill=1;exitX=0.5;exitY=1;exitDx=0;exitDy=0;" parent="1" source="FFMesDiLdKPJftJJYNsA-18" target="FFMesDiLdKPJftJJYNsA-14" edge="1">
          <mxGeometry relative="1" as="geometry" />
        </mxCell>
        <mxCell id="FFMesDiLdKPJftJJYNsA-22" style="rounded=0;orthogonalLoop=1;jettySize=auto;html=1;exitX=0.5;exitY=1;exitDx=0;exitDy=0;entryX=0.5;entryY=0;entryDx=0;entryDy=0;strokeWidth=2;startArrow=classicThin;startFill=1;endArrow=classicThin;endFill=1;" parent="1" source="FFMesDiLdKPJftJJYNsA-18" target="FFMesDiLdKPJftJJYNsA-2" edge="1">
          <mxGeometry relative="1" as="geometry" />
        </mxCell>
        <mxCell id="FFMesDiLdKPJftJJYNsA-18" value="&lt;b&gt;Toolkits&lt;/b&gt;" style="rounded=1;whiteSpace=wrap;html=1;fillColor=none;strokeWidth=2;" parent="1" vertex="1">
          <mxGeometry x="530" y="260" width="140" height="73" as="geometry" />
        </mxCell>
        <mxCell id="PYRaA_V8IaKOw2jDTxlb-3" value="" style="group" vertex="1" connectable="0" parent="1">
          <mxGeometry x="470" y="410" width="420" height="246.5" as="geometry" />
        </mxCell>
        <mxCell id="PYRaA_V8IaKOw2jDTxlb-1" value="" style="rounded=0;whiteSpace=wrap;html=1;gradientColor=none;fillColor=none;dashed=1;dashPattern=12 12;" vertex="1" parent="PYRaA_V8IaKOw2jDTxlb-3">
          <mxGeometry width="420" height="246.5" as="geometry" />
        </mxCell>
        <mxCell id="PYRaA_V8IaKOw2jDTxlb-2" value="&lt;div&gt;&lt;b&gt;Cryptography libraries:&lt;/b&gt;&lt;/div&gt;&lt;div&gt;OpenFHE, Lattigo, Concrete, SEAL, HElib, Λ&lt;span dir=&quot;ltr&quot; role=&quot;presentation&quot; style=&quot;left: 133.842px; top: 242.907px; font-size: 10.0751px; font-family: sans-serif;&quot;&gt;o&lt;/span&gt;&lt;span dir=&quot;ltr&quot; role=&quot;presentation&quot; style=&quot;left: 138.88px; top: 242.907px; font-size: 10.0751px; font-family: sans-serif;&quot;&gt;λ, etc.&lt;/span&gt;&lt;span dir=&quot;ltr&quot; role=&quot;presentation&quot; style=&quot;left: 144.757px; top: 242.907px; font-size: 10.0751px; font-family: sans-serif;&quot;&gt;&lt;/span&gt;&lt;/div&gt;" style="text;html=1;align=center;verticalAlign=middle;whiteSpace=wrap;rounded=0;" vertex="1" parent="PYRaA_V8IaKOw2jDTxlb-3">
          <mxGeometry x="230" y="97.38" width="170" height="51.75" as="geometry" />
        </mxCell>
      </root>
    </mxGraphModel>
  </diagram>
</mxfile>
